<?xml version="1.0" encoding="UTF-8" standalone="no"?>
<!-- Generator: Adobe Illustrator 25.4.1, SVG Export Plug-In . SVG Version: 6.00 Build 0)  -->

<svg
   version="1.0"
   id="katman_1"
   x="0px"
   y="0px"
   viewBox="0 0 473822.08 51672.032"
   xml:space="preserve"
   width="473822.09"
   height="51672.031"
   xmlns="http://www.w3.org/2000/svg"
   xmlns:svg="http://www.w3.org/2000/svg"><defs
   id="defs8" />
<style
   type="text/css"
   id="style1">
	.st0{fill-rule:evenodd;clip-rule:evenodd;fill:#1B1918;}
	.st1{fill:#1B1918;}
</style>
<g
   id="g8"
   transform="translate(-116349.82,-200735.17)">
	
	
	
	
	
	
	<path
   class="st0"
   d="m 680,415.4 c 1,0 1.9,-0.3 1.9,-1.2 0,-0.7 -0.6,-1.2 -1.9,-1.2 h -1.6 v 2.4 z m 2.1,4.8 c -0.7,-1.4 -1.2,-2.4 -1.9,-3 l -1.4,-0.4 h -0.4 v 3.5 h -1.8 v -8.6 h 4.3 c 2,0 2.8,1.2 2.8,2.4 0,1.3 -0.9,2.2 -2.4,2.4 v 0.1 c 1,0.3 1.2,0.9 2.9,3.7 h -2.1 z m -8.6,-4.3 c 0,3.6 3,6.5 6.7,6.5 3.7,0 6.6,-2.9 6.6,-6.5 0,-3.6 -3,-6.4 -6.6,-6.4 -3.7,-0.1 -6.7,2.8 -6.7,6.4 z m 15,0 c 0,4.5 -3.7,8.1 -8.3,8.1 -4.6,0 -8.3,-3.6 -8.3,-8.1 0,-4.5 3.7,-8.1 8.3,-8.1 4.6,0 8.3,3.6 8.3,8.1 z m -522.8,-76 c 8.4,0 128.7,0 128.7,0 0,0 -3.9,8.4 -6.5,14.2 -2.8,6 -6.8,7.6 -11.2,7.6 -6.4,0 -20.9,0 -20.9,0 V 424 h -23.6 v -62.3 c 0,0 -63.5,0 -66.7,0 -6.4,0 -6.4,10 0.6,10 0.6,0 19.4,0 19.9,0 17.9,0.3 26.4,8.5 26.4,24.4 0,15.9 -5.7,27.8 -24.3,27.8 -15.5,0 -48.2,0 -48.2,0 v -22.1 c 0,0 35.1,0 44.7,0 6.4,0 6.3,-9.6 -0.5,-9.6 -3,0 -9.2,0.1 -16.9,0.1 -21.4,0 -29,-8.7 -29,-24.7 -0.1,-15.9 7.9,-27.7 27.5,-27.7 z m 331.6,60.6 c 0,2.6 2.1,3.5 4.1,3.5 2,0 35.4,0 35.4,0 v 19.9 c 0,0 -46.6,0 -50.6,0 -4,0 -12.5,-6.2 -12.2,-13.2 v -72.8 h 23.4 c -0.1,0 -0.1,60 -0.1,62.6 z m -56.8,-11.2 v -51.4 h 23.8 v 86 h -20.7 c -3.7,0 -10.6,-2.1 -15.3,-9.5 -8.3,-16.3 -14.6,-27.9 -23.9,-42.8 v 52.3 h -22.9 v -86 c 0,0 11.4,0 21.2,0 5.3,0 12.4,6.9 17.8,16 5.4,9.2 20,35.4 20,35.4 z M 676,337.9 h 25 c 0,0 -23.8,39.6 -36.5,58 V 424 H 641.4 V 395.9 L 616.6,359.5 H 570.8 V 372 h 35.8 v 18.4 h -35.8 v 14 h 42.8 v 19.5 h -56.9 c -6.8,0 -11.3,-5.4 -11.3,-11.7 l -0.2,-74.3 c 15.3,-0.3 73.7,0.2 84.9,0 7.9,11.6 15.6,25.7 23.5,37.4 7.8,-12.1 22.4,-37.4 22.4,-37.4 z m -370.3,52.5 c 7.4,-16.2 14.6,-32.1 14.6,-32.1 0,0 7.2,15.8 14.6,32.1 z m 33.4,-43.2 c -4.9,-6.7 -11.4,-10 -18.2,-10 h -0.1 c -0.2,0 -0.4,0 -0.6,0 -0.2,0 -0.4,0 -0.6,0 h -0.1 c -6.8,0 -13.3,3.3 -18.1,10 C 288,369.5 265,423.9 265,423.9 h 25.2 l 6.2,-13.4 c 0,0 13.1,0 25,0 4.1,0 7.8,-1.5 10.5,-7.1 1.4,-3.1 3.3,-7 4.5,-9.8 6.2,13.6 13.9,30.2 13.9,30.2 h 25.2 c 0,0.1 -22.9,-54.3 -36.4,-76.6 z m 0,0"
   id="path7" />
	
</g>
</svg>
