<?xml version="1.0" encoding="UTF-8" standalone="no"?>
<!-- Generator: Adobe Illustrator 25.4.1, SVG Export Plug-In . SVG Version: 6.00 Build 0)  -->

<svg
   version="1.0"
   id="katman_1"
   x="0px"
   y="0px"
   viewBox="0 0 194899.84 116202.57"
   xml:space="preserve"
   width="194899.84"
   height="116202.57"
   xmlns="http://www.w3.org/2000/svg"
   xmlns:svg="http://www.w3.org/2000/svg"><defs
   id="defs8" />
<style
   type="text/css"
   id="style1">
	.st0{fill-rule:evenodd;clip-rule:evenodd;fill:#1B1918;}
	.st1{fill:#1B1918;}
</style>
<g
   id="g8"
   transform="translate(-265366.88,-72031.297)">
	<path
   class="st0"
   d="m 365.8,168.5 c 0.2,4.4 0.4,8.8 0.6,13.1 0.2,4.6 -4.1,5.6 -6.1,2.5 l -3.5,-6.4 3.4,-1 v -4.4 H 352 v 4.5 l 3.7,1 c -1,2 -2.4,4.2 -3.4,6.1 -1.7,3.5 -6.5,2.3 -6.2,-2.3 l 0.5,-13.1 9.7,-7.1 z m -41.2,-19 -6.3,1.9 v 13.3 l 7,7.4 -3.9,22.5 10.8,43.6 46.6,39.7 -1.2,30 -10.1,-3.2 -7.2,11.3 h 39.3 l 17.9,-56.4 74.1,19.1 15,29 -9.1,-2.8 -6.1,11.2 h 33.4 l 7.3,-8.9 -7.1,-33.5 -0.3,-48.2 c 6.2,-0.1 8.7,-4.1 9.3,-10 h -8.5 C 509.6,203.2 499,192 482.9,191.9 c -21.8,-0.1 -43.6,-0.2 -65.4,-0.3 l -13,13.8 16.1,-40.5 c 1.6,-3.9 4.9,-6.6 9.1,-7.2 l 97,-14.1 c 11.2,-1.6 19.3,-9.3 20,-20.8 L 421.9,148 c -6.3,1.3 -11.2,5.1 -13.9,10.8 l -13.9,29 -6.8,-16.1 6.8,-6.5 v -14.5 l -7.3,-0.8 -9.3,3.6 -10.7,-5.8 -11,1.8 -10.7,-1.6 -9,5.6 z m 0,0"
   id="path1" />
	<path
   class="st0"
   d="m 315.2,316.1 6.3,-10.5 9.3,5.3 6.9,-56.7 28.5,23.8 -14.3,38.2 h -36.7 z m 0,0"
   id="path2" />
	<path
   class="st0"
   d="m 448.4,275.7 33,9.4 -6.9,31 h -38.7 l 7.3,-12.2 10.7,4.4 z m 0,0"
   id="path3" />
	<path
   class="st0"
   d="m 425.3,170.9 88.9,-5.1 c 11.3,-0.8 18.5,-4.9 20.3,-13.5 l -100.4,12 c -3,0.4 -5.4,1.8 -7.2,4.2 z m 0,0"
   id="path4" />
	<path
   class="st0"
   d="m 423,178 -2.3,6.1 82.3,-0.8 c 7.2,0 12.1,-2.3 14,-7.6 z m 0,0"
   id="path5" />
	<path
   class="st0"
   d="m 374,121 c 0.8,0 1.4,0.6 1.4,1.4 0,0.8 -0.6,1.4 -1.4,1.4 -0.1,0 -0.1,0 -0.2,0 v 18.6 h -35.4 v -18.6 c -0.8,0 -1.4,-0.6 -1.4,-1.4 0,-0.8 0.6,-1.4 1.4,-1.4 0.8,0 1.4,0.6 1.4,1.4 0,0.6 -0.4,1.1 -0.9,1.3 l 3.8,6.9 h 4.2 l 3.3,-6.8 c -0.6,-0.2 -1,-0.7 -1,-1.3 0,-0.8 0.6,-1.4 1.4,-1.4 0.8,0 1.4,0.6 1.4,1.4 0,0.6 -0.4,1.2 -1,1.3 l 3.3,6.9 h 4.2 l 3.5,-6.9 c -0.6,-0.2 -1,-0.7 -1,-1.3 0,-0.8 0.6,-1.4 1.4,-1.4 0.8,0 1.4,0.6 1.4,1.4 0,0.6 -0.4,1.1 -1,1.3 l 3.4,6.9 h 3.8 l 3.5,-6.9 c -0.5,-0.2 -0.8,-0.7 -0.8,-1.3 -0.1,-0.9 0.5,-1.5 1.3,-1.5 z m 0,0"
   id="path6" />
	
	
</g>
</svg>
