<?xml version="1.0" encoding="utf-8"?>
<!-- Generator: Adobe Illustrator 25.4.1, SVG Export Plug-In . SVG Version: 6.00 Build 0)  -->
<svg version="1.0" id="katman_1" xmlns="http://www.w3.org/2000/svg" xmlns:xlink="http://www.w3.org/1999/xlink" x="0px" y="0px"
	 viewBox="0 0 841.9 595.3" style="enable-background:new 0 0 841.9 595.3;" xml:space="preserve">
<style type="text/css">
	.st0{fill-rule:evenodd;clip-rule:evenodd;fill:#1B1918;}
	.st1{fill:#1B1918;}
</style>
<g>
	<path class="st0" d="M365.8,168.5c0.2,4.4,0.4,8.8,0.6,13.1c0.2,4.6-4.1,5.6-6.1,2.5l-3.5-6.4l3.4-1l0-4.4l-8.2,0l0,4.5l3.7,1
		c-1,2-2.4,4.2-3.4,6.1c-1.7,3.5-6.5,2.3-6.2-2.3l0.5-13.1l9.7-7.1L365.8,168.5z M324.6,149.5l-6.3,1.9v13.3l7,7.4l-3.9,22.5
		l10.8,43.6l46.6,39.7l-1.2,30l-10.1-3.2l-7.2,11.3h39.3l17.9-56.4l74.1,19.1l15,29l-9.1-2.8l-6.1,11.2h33.4l7.3-8.9l-7.1-33.5
		l-0.3-48.2c6.2-0.1,8.7-4.1,9.3-10h-8.5c-15.9-12.3-26.5-23.5-42.6-23.6c-21.8-0.1-43.6-0.2-65.4-0.3l-13,13.8l16.1-40.5
		c1.6-3.9,4.9-6.6,9.1-7.2l97-14.1c11.2-1.6,19.3-9.3,20-20.8L421.9,148c-6.3,1.3-11.2,5.1-13.9,10.8l-13.9,29l-6.8-16.1l6.8-6.5
		v-14.5l-7.3-0.8l-9.3,3.6l-10.7-5.8l-11,1.8l-10.7-1.6l-9,5.6L324.6,149.5z M324.6,149.5"/>
	<path class="st0" d="M315.2,316.1l6.3-10.5l9.3,5.3l6.9-56.7l28.5,23.8l-14.3,38.2H315.2z M315.2,316.1"/>
	<path class="st0" d="M448.4,275.7l33,9.4l-6.9,31h-38.7l7.3-12.2l10.7,4.4L448.4,275.7z M448.4,275.7"/>
	<path class="st0" d="M425.3,170.9l88.9-5.1c11.3-0.8,18.5-4.9,20.3-13.5l-100.4,12c-3,0.4-5.4,1.8-7.2,4.2L425.3,170.9z
		 M425.3,170.9"/>
	<path class="st0" d="M423,178l-2.3,6.1l82.3-0.8c7.2,0,12.1-2.3,14-7.6L423,178z M423,178"/>
	<path class="st0" d="M374,121c0.8,0,1.4,0.6,1.4,1.4c0,0.8-0.6,1.4-1.4,1.4c-0.1,0-0.1,0-0.2,0v18.6h-35.4v-18.6
		c-0.8,0-1.4-0.6-1.4-1.4c0-0.8,0.6-1.4,1.4-1.4c0.8,0,1.4,0.6,1.4,1.4c0,0.6-0.4,1.1-0.9,1.3l3.8,6.9h4.2l3.3-6.8
		c-0.6-0.2-1-0.7-1-1.3c0-0.8,0.6-1.4,1.4-1.4c0.8,0,1.4,0.6,1.4,1.4c0,0.6-0.4,1.2-1,1.3l3.3,6.9l4.2,0l3.5-6.9
		c-0.6-0.2-1-0.7-1-1.3c0-0.8,0.6-1.4,1.4-1.4s1.4,0.6,1.4,1.4c0,0.6-0.4,1.1-1,1.3l3.4,6.9l3.8,0l3.5-6.9c-0.5-0.2-0.8-0.7-0.8-1.3
		C372.6,121.6,373.2,121,374,121L374,121z M374,121"/>
	<path class="st0" d="M680,415.4c1,0,1.9-0.3,1.9-1.2c0-0.7-0.6-1.2-1.9-1.2h-1.6v2.4H680z M682.1,420.2c-0.7-1.4-1.2-2.4-1.9-3
		l-1.4-0.4h-0.4v3.5h-1.8v-8.6h4.3c2,0,2.8,1.2,2.8,2.4c0,1.3-0.9,2.2-2.4,2.4v0.1c1,0.3,1.2,0.9,2.9,3.7H682.1z M673.5,415.9
		c0,3.6,3,6.5,6.7,6.5c3.7,0,6.6-2.9,6.6-6.5c0-3.6-3-6.4-6.6-6.4C676.5,409.4,673.5,412.3,673.5,415.9L673.5,415.9z M688.5,415.9
		c0,4.5-3.7,8.1-8.3,8.1c-4.6,0-8.3-3.6-8.3-8.1c0-4.5,3.7-8.1,8.3-8.1C684.8,407.8,688.5,411.4,688.5,415.9L688.5,415.9z
		 M165.7,339.9c8.4,0,128.7,0,128.7,0s-3.9,8.4-6.5,14.2c-2.8,6-6.8,7.6-11.2,7.6c-6.4,0-20.9,0-20.9,0v62.3h-23.6v-62.3
		c0,0-63.5,0-66.7,0c-6.4,0-6.4,10,0.6,10c0.6,0,19.4,0,19.9,0c17.9,0.3,26.4,8.5,26.4,24.4c0,15.9-5.7,27.8-24.3,27.8
		c-15.5,0-48.2,0-48.2,0l0-22.1c0,0,35.1,0,44.7,0c6.4,0,6.3-9.6-0.5-9.6c-3,0-9.2,0.1-16.9,0.1c-21.4,0-29-8.7-29-24.7
		C138.1,351.7,146.1,339.9,165.7,339.9L165.7,339.9z M497.3,400.5c0,2.6,2.1,3.5,4.1,3.5c2,0,35.4,0,35.4,0v19.9c0,0-46.6,0-50.6,0
		c-4,0-12.5-6.2-12.2-13.2v-72.8h23.4C497.3,337.9,497.3,397.9,497.3,400.5L497.3,400.5z M440.5,389.3v-51.4h23.8v86h-20.7
		c-3.7,0-10.6-2.1-15.3-9.5c-8.3-16.3-14.6-27.9-23.9-42.8v52.3h-22.9v-86c0,0,11.4,0,21.2,0c5.3,0,12.4,6.9,17.8,16
		C425.9,363.1,440.5,389.3,440.5,389.3L440.5,389.3z M676,337.9h25c0,0-23.8,39.6-36.5,58v28.1h-23.1v-28.1l-24.8-36.4h-45.8V372
		h35.8v18.4h-35.8v14h42.8v19.5h-56.9c-6.8,0-11.3-5.4-11.3-11.7l-0.2-74.3c15.3-0.3,73.7,0.2,84.9,0c7.9,11.6,15.6,25.7,23.5,37.4
		C661.4,363.2,676,337.9,676,337.9L676,337.9z M305.7,390.4c7.4-16.2,14.6-32.1,14.6-32.1s7.2,15.8,14.6,32.1H305.7z M339.1,347.2
		c-4.9-6.7-11.4-10-18.2-10h-0.1c-0.2,0-0.4,0-0.6,0c-0.2,0-0.4,0-0.6,0h-0.1c-6.8,0-13.3,3.3-18.1,10
		C288,369.5,265,423.9,265,423.9h25.2l6.2-13.4c0,0,13.1,0,25,0c4.1,0,7.8-1.5,10.5-7.1c1.4-3.1,3.3-7,4.5-9.8
		c6.2,13.6,13.9,30.2,13.9,30.2h25.2C375.5,423.9,352.6,369.5,339.1,347.2L339.1,347.2z M339.1,347.2"/>
	<path class="st1" d="M246.8,445.8c-1.4-0.2-2.7-0.4-4-0.4c-3,0-5.4,0.7-7.2,2.1c-1.7,1.4-2.6,3.4-2.6,5.8c0,2.1,0.6,3.8,1.9,5
		c1.3,1.2,3.3,2.1,6.1,2.6l2.3,0.4c1.9,0.4,3.3,1,4.1,1.7c0.8,0.8,1.3,1.8,1.3,3.2c0,1.6-0.6,2.8-1.7,3.6c-1.2,0.8-2.8,1.3-5,1.3
		c-1.4,0-2.9-0.2-4.3-0.7c-1.5-0.4-3-1.1-4.5-1.9v3.9c1.6,0.6,3.1,1,4.6,1.3c1.5,0.3,2.9,0.4,4.2,0.4c3.5,0,6.1-0.7,7.9-2.1
		c1.8-1.4,2.7-3.4,2.7-6.1c0-2.3-0.7-4.1-2-5.4c-1.3-1.3-3.4-2.3-6.2-2.8l-2.3-0.5c-2.1-0.4-3.5-0.9-4.2-1.5
		c-0.7-0.6-1.1-1.6-1.1-2.8c0-1.5,0.6-2.6,1.7-3.4c1.1-0.8,2.7-1.2,4.7-1.2c1.2,0,2.4,0.2,3.7,0.5c1.3,0.3,2.6,0.8,4,1.5v-3.7
		C249.6,446.4,248.2,446,246.8,445.8L246.8,445.8z M258.5,473.7h3.8V446h-3.8V473.7L258.5,473.7z M269.8,473.7h3.6v-23.3l12.3,23.3
		h5.1V446h-3.6v23.3L274.8,446h-5.1V473.7L269.8,473.7z M315,446.1c-1.5-0.4-3-0.7-4.7-0.7c-4.2,0-7.5,1.3-9.9,3.9
		c-2.4,2.6-3.6,6.1-3.6,10.6c0,4.5,1.2,8,3.6,10.5c2.4,2.6,5.7,3.9,9.9,3.9c1.6,0,3.2-0.2,4.7-0.7c1.5-0.4,2.9-1.1,4.2-2v-3.9
		c-1.3,1.2-2.6,2.1-4,2.6c-1.4,0.6-3,0.9-4.6,0.9c-3.2,0-5.6-1-7.3-2.9c-1.7-1.9-2.5-4.7-2.5-8.4c0-3.7,0.8-6.5,2.5-8.4
		c1.7-1.9,4.1-2.9,7.3-2.9c1.6,0,3.1,0.3,4.6,0.9c1.4,0.6,2.8,1.5,4,2.6v-4C317.8,447.2,316.4,446.6,315,446.1L315,446.1z
		 M324.9,473.7h17.9v-3.2h-14.1v-10.1h13.2v-3.2h-13.2v-8.2h13.8V446h-17.6V473.7L324.9,473.7z M362.1,473.7h16v-3.2H372V446h-3.8
		l-6.6,1.3v3.4l6.7-1.3v21.2h-6.1V473.7L362.1,473.7z M388.8,474c1,0.2,1.9,0.3,2.9,0.3c3.5,0,6.3-1.3,8.4-3.9
		c2.1-2.6,3.1-6.1,3.1-10.5c0-4.7-0.8-8.3-2.5-10.7c-1.7-2.5-4.1-3.7-7.4-3.7c-2.8,0-5.1,0.9-6.7,2.6c-1.7,1.7-2.5,4-2.5,6.9
		c0,2.9,0.8,5.2,2.4,6.9c1.6,1.7,3.8,2.5,6.6,2.5c1.3,0,2.6-0.3,3.7-0.9c1.1-0.6,2-1.4,2.7-2.5c-0.2,3.4-0.9,5.9-2.2,7.6
		c-1.3,1.7-3.2,2.5-5.7,2.5c-0.9,0-1.9-0.1-2.8-0.4c-1-0.2-1.9-0.6-2.9-1v3.4C386.9,473.5,387.9,473.8,388.8,474L388.8,474z
		 M389.3,459.7c-1-1.2-1.5-2.7-1.5-4.7c0-2,0.5-3.6,1.5-4.7c1-1.2,2.3-1.7,4-1.7c1.7,0,3,0.6,4,1.7c1,1.2,1.5,2.7,1.5,4.7
		c0,2-0.5,3.6-1.5,4.7c-1,1.2-2.3,1.7-4,1.7C391.6,461.4,390.3,460.8,389.3,459.7L389.3,459.7z M410.6,473.7h16v-3.2h-6.1V446h-3.8
		l-6.6,1.3v3.4l6.7-1.3v21.2h-6.1V473.7L410.6,473.7z M449.4,456.6c0.9-1.1,1.3-2.4,1.3-3.9c0-2.2-0.8-4-2.5-5.3
		c-1.7-1.3-3.9-1.9-6.8-1.9c-1.1,0-2.3,0.1-3.5,0.3c-1.2,0.2-2.6,0.5-4,0.9v3.4c1.4-0.5,2.7-0.8,3.9-1c1.2-0.2,2.3-0.3,3.3-0.3
		c1.9,0,3.3,0.4,4.3,1.1c1,0.8,1.5,1.9,1.5,3.3c0,1.4-0.5,2.5-1.5,3.2c-1,0.7-2.4,1.1-4.2,1.1h-3.4v3.1h3.2c2,0,3.6,0.5,4.8,1.4
		c1.1,0.9,1.7,2.2,1.7,3.8c0,1.8-0.6,3.1-1.9,4.1c-1.2,0.9-3,1.4-5.4,1.4c-1.4,0-2.6-0.2-3.9-0.5c-1.2-0.3-2.4-0.8-3.4-1.4v3.6
		c1.3,0.5,2.6,0.8,3.8,1c1.2,0.2,2.4,0.3,3.6,0.3c3.5,0,6.2-0.8,8-2.3c1.9-1.5,2.8-3.6,2.8-6.4c0-1.8-0.5-3.3-1.5-4.5
		c-1-1.2-2.4-2-4.2-2.4C447.2,458.4,448.5,457.6,449.4,456.6L449.4,456.6z"/>
</g>
</svg>
